<?xml version="1.0" standalone="no"?>
<svg xmlns:xlink="http://www.w3.org/1999/xlink" id="wave" style="transform:rotate(180deg); transition: 0.3s" viewBox="0 0 1440 230" version="1.1" xmlns="http://www.w3.org/2000/svg"><defs><linearGradient id="sw-gradient-0" x1="0" x2="0" y1="1" y2="0"><stop stop-color="rgba(254.459, 154.366, 26.797, 1)" offset="0%"/><stop stop-color="rgba(233, 162, 9, 1)" offset="100%"/></linearGradient></defs><path style="transform:translate(0, 0px); opacity:1" fill="url(#sw-gradient-0)" d="M0,138L34.3,115C68.6,92,137,46,206,34.5C274.3,23,343,46,411,76.7C480,107,549,146,617,168.7C685.7,192,754,199,823,180.2C891.4,161,960,115,1029,111.2C1097.1,107,1166,146,1234,161C1302.9,176,1371,169,1440,157.2C1508.6,146,1577,130,1646,130.3C1714.3,130,1783,146,1851,130.3C1920,115,1989,69,2057,46C2125.7,23,2194,23,2263,38.3C2331.4,54,2400,84,2469,80.5C2537.1,77,2606,38,2674,53.7C2742.9,69,2811,138,2880,157.2C2948.6,176,3017,146,3086,130.3C3154.3,115,3223,115,3291,122.7C3360,130,3429,146,3497,149.5C3565.7,153,3634,146,3703,130.3C3771.4,115,3840,92,3909,99.7C3977.1,107,4046,146,4114,157.2C4182.9,169,4251,153,4320,122.7C4388.6,92,4457,46,4526,46C4594.3,46,4663,92,4731,122.7C4800,153,4869,169,4903,176.3L4937.1,184L4937.1,230L4902.9,230C4868.6,230,4800,230,4731,230C4662.9,230,4594,230,4526,230C4457.1,230,4389,230,4320,230C4251.4,230,4183,230,4114,230C4045.7,230,3977,230,3909,230C3840,230,3771,230,3703,230C3634.3,230,3566,230,3497,230C3428.6,230,3360,230,3291,230C3222.9,230,3154,230,3086,230C3017.1,230,2949,230,2880,230C2811.4,230,2743,230,2674,230C2605.7,230,2537,230,2469,230C2400,230,2331,230,2263,230C2194.3,230,2126,230,2057,230C1988.6,230,1920,230,1851,230C1782.9,230,1714,230,1646,230C1577.1,230,1509,230,1440,230C1371.4,230,1303,230,1234,230C1165.7,230,1097,230,1029,230C960,230,891,230,823,230C754.3,230,686,230,617,230C548.6,230,480,230,411,230C342.9,230,274,230,206,230C137.1,230,69,230,34,230L0,230Z"/></svg>