<?xml version="1.0" standalone="no"?>
<svg xmlns:xlink="http://www.w3.org/1999/xlink" id="wave" style="transform:rotate(180deg); transition: 0.3s" viewBox="0 0 1440 100" version="1.1" xmlns="http://www.w3.org/2000/svg"><defs><linearGradient id="sw-gradient-0" x1="0" x2="0" y1="1" y2="0"><stop stop-color="rgba(255, 255, 255, 1)" offset="0%"/><stop stop-color="rgba(248.54, 248.54, 248.54, 1)" offset="100%"/></linearGradient></defs><path style="transform:translate(0, 0px); opacity:1" fill="url(#sw-gradient-0)" d="M0,30L48,40C96,50,192,70,288,66.7C384,63,480,37,576,33.3C672,30,768,50,864,55C960,60,1056,50,1152,38.3C1248,27,1344,13,1440,6.7C1536,0,1632,0,1728,8.3C1824,17,1920,33,2016,38.3C2112,43,2208,37,2304,36.7C2400,37,2496,43,2592,43.3C2688,43,2784,37,2880,38.3C2976,40,3072,50,3168,48.3C3264,47,3360,33,3456,26.7C3552,20,3648,20,3744,25C3840,30,3936,40,4032,43.3C4128,47,4224,43,4320,46.7C4416,50,4512,60,4608,65C4704,70,4800,70,4896,70C4992,70,5088,70,5184,66.7C5280,63,5376,57,5472,55C5568,53,5664,57,5760,50C5856,43,5952,27,6048,16.7C6144,7,6240,3,6336,3.3C6432,3,6528,7,6624,13.3C6720,20,6816,30,6864,35L6912,40L6912,100L6864,100C6816,100,6720,100,6624,100C6528,100,6432,100,6336,100C6240,100,6144,100,6048,100C5952,100,5856,100,5760,100C5664,100,5568,100,5472,100C5376,100,5280,100,5184,100C5088,100,4992,100,4896,100C4800,100,4704,100,4608,100C4512,100,4416,100,4320,100C4224,100,4128,100,4032,100C3936,100,3840,100,3744,100C3648,100,3552,100,3456,100C3360,100,3264,100,3168,100C3072,100,2976,100,2880,100C2784,100,2688,100,2592,100C2496,100,2400,100,2304,100C2208,100,2112,100,2016,100C1920,100,1824,100,1728,100C1632,100,1536,100,1440,100C1344,100,1248,100,1152,100C1056,100,960,100,864,100C768,100,672,100,576,100C480,100,384,100,288,100C192,100,96,100,48,100L0,100Z"/></svg>