<?xml version="1.0" standalone="no"?>
<svg xmlns:xlink="http://www.w3.org/1999/xlink" id="wave" style="transform:rotate(180deg); transition: 0.3s" viewBox="0 0 1440 230" version="1.1" xmlns="http://www.w3.org/2000/svg"><defs><linearGradient id="sw-gradient-0" x1="0" x2="0" y1="1" y2="0"><stop stop-color="rgba(0, 33, 96, 1)" offset="0%"/><stop stop-color="rgba(0, 33, 96, 1)" offset="100%"/></linearGradient></defs><path style="transform:translate(0, 0px); opacity:1" fill="url(#sw-gradient-0)" d="M0,115L34.3,107.3C68.6,100,137,84,206,95.8C274.3,107,343,146,411,153.3C480,161,549,138,617,111.2C685.7,84,754,54,823,65.2C891.4,77,960,130,1029,141.8C1097.1,153,1166,123,1234,107.3C1302.9,92,1371,92,1440,99.7C1508.6,107,1577,123,1646,138C1714.3,153,1783,169,1851,180.2C1920,192,1989,199,2057,191.7C2125.7,184,2194,161,2263,141.8C2331.4,123,2400,107,2469,118.8C2537.1,130,2606,169,2674,184C2742.9,199,2811,192,2880,176.3C2948.6,161,3017,138,3086,138C3154.3,138,3223,161,3291,141.8C3360,123,3429,61,3497,42.2C3565.7,23,3634,46,3703,61.3C3771.4,77,3840,84,3909,88.2C3977.1,92,4046,92,4114,88.2C4182.9,84,4251,77,4320,95.8C4388.6,115,4457,161,4526,161C4594.3,161,4663,115,4731,80.5C4800,46,4869,23,4903,11.5L4937.1,0L4937.1,230L4902.9,230C4868.6,230,4800,230,4731,230C4662.9,230,4594,230,4526,230C4457.1,230,4389,230,4320,230C4251.4,230,4183,230,4114,230C4045.7,230,3977,230,3909,230C3840,230,3771,230,3703,230C3634.3,230,3566,230,3497,230C3428.6,230,3360,230,3291,230C3222.9,230,3154,230,3086,230C3017.1,230,2949,230,2880,230C2811.4,230,2743,230,2674,230C2605.7,230,2537,230,2469,230C2400,230,2331,230,2263,230C2194.3,230,2126,230,2057,230C1988.6,230,1920,230,1851,230C1782.9,230,1714,230,1646,230C1577.1,230,1509,230,1440,230C1371.4,230,1303,230,1234,230C1165.7,230,1097,230,1029,230C960,230,891,230,823,230C754.3,230,686,230,617,230C548.6,230,480,230,411,230C342.9,230,274,230,206,230C137.1,230,69,230,34,230L0,230Z"/></svg>