<?xml version="1.0" standalone="no"?>
<svg xmlns:xlink="http://www.w3.org/1999/xlink" id="wave" style="transform:rotate(180deg); transition: 0.3s" viewBox="0 0 1440 140" version="1.1" xmlns="http://www.w3.org/2000/svg"><defs><linearGradient id="sw-gradient-0" x1="0" x2="0" y1="1" y2="0"><stop stop-color="rgba(6.537, 5.945, 18.584, 1)" offset="0%"/><stop stop-color="rgba(11, 214.494, 255, 1)" offset="100%"/></linearGradient></defs><path style="transform:translate(0, 0px); opacity:1" fill="url(#sw-gradient-0)" d="M0,70L60,79.3C120,89,240,107,360,95.7C480,84,600,42,720,28C840,14,960,28,1080,28C1200,28,1320,14,1440,7C1560,0,1680,0,1800,7C1920,14,2040,28,2160,30.3C2280,33,2400,23,2520,32.7C2640,42,2760,70,2880,79.3C3000,89,3120,79,3240,67.7C3360,56,3480,42,3600,49C3720,56,3840,84,3960,93.3C4080,103,4200,93,4320,77C4440,61,4560,37,4680,28C4800,19,4920,23,5040,28C5160,33,5280,37,5400,46.7C5520,56,5640,70,5760,63C5880,56,6000,28,6120,28C6240,28,6360,56,6480,67.7C6600,79,6720,75,6840,60.7C6960,47,7080,23,7200,21C7320,19,7440,37,7560,58.3C7680,79,7800,103,7920,114.3C8040,126,8160,126,8280,107.3C8400,89,8520,51,8580,32.7L8640,14L8640,140L8580,140C8520,140,8400,140,8280,140C8160,140,8040,140,7920,140C7800,140,7680,140,7560,140C7440,140,7320,140,7200,140C7080,140,6960,140,6840,140C6720,140,6600,140,6480,140C6360,140,6240,140,6120,140C6000,140,5880,140,5760,140C5640,140,5520,140,5400,140C5280,140,5160,140,5040,140C4920,140,4800,140,4680,140C4560,140,4440,140,4320,140C4200,140,4080,140,3960,140C3840,140,3720,140,3600,140C3480,140,3360,140,3240,140C3120,140,3000,140,2880,140C2760,140,2640,140,2520,140C2400,140,2280,140,2160,140C2040,140,1920,140,1800,140C1680,140,1560,140,1440,140C1320,140,1200,140,1080,140C960,140,840,140,720,140C600,140,480,140,360,140C240,140,120,140,60,140L0,140Z"/></svg>